<?xml version="1.0" encoding="UTF-8"?>
<svg id="Layer_1" xmlns="http://www.w3.org/2000/svg" version="1.1" xmlns:xlink="http://www.w3.org/1999/xlink" viewBox="0 0 220 59">
  <!-- Generator: Adobe Illustrator 30.3.0, SVG Export Plug-In . SVG Version: 2.1.3 Build 182)  -->
  <defs>
    <style>
      .st0 {
        fill: none;
      }

      .st1 {
        fill: #ed292a;
      }

      .st1, .st2 {
        fill-rule: evenodd;
      }

      .st3 {
        clip-path: url(#clippath);
      }
    </style>
    <clipPath id="clippath">
      <rect class="st0" x="128.64" y="18.22" width="36.39" height="10.9"/>
    </clipPath>
  </defs>
  <path d="M144.21,34.1c-2.83,0-5.09-.75-6.55-2.18-1.25-1.22-1.79-2.81-1.58-4.6.38-3.11,3.05-6.41,7.15-8.83,3.35-1.98,7.25-3.11,10.7-3.11,2.82,0,5.09.75,6.55,2.18,1.25,1.22,1.79,2.81,1.58,4.59-.37,3.11-3.05,6.41-7.15,8.83-3.36,1.98-7.26,3.11-10.7,3.11M153.93,18.37c-2.93,0-6.28.98-9.19,2.7-3.21,1.89-5.45,4.49-5.71,6.62-.1.86.13,1.55.7,2.11.88.86,2.47,1.33,4.47,1.33,2.93,0,6.28-.98,9.19-2.7,3.21-1.89,5.45-4.49,5.71-6.62.1-.86-.13-1.55-.7-2.11-.88-.86-2.47-1.33-4.47-1.33Z"/>
  <path class="st2" d="M196.98,17.37c.99.01,1.79.15,2.41.39.62.24,1.05.6,1.28,1.09.24.46.35.96.3,1.48-.04.53-.24,1.08-.57,1.66-.02.03-.04.07-.06.1-.02.03-.04.07-.06.1,0,.02-.02.03-.03.05,0,.02-.02.03-.03.05-.04.02-.06.03-.07.05,0,.02-.02.03-.03.05-.38.57-.89,1.12-1.53,1.65-.64.53-1.39,1.04-2.26,1.52-.83.46-1.74.82-2.73,1.06-.98.24-2.03.36-3.13.36-.15,0-.31,0-.47-.01-.16,0-.33-.02-.5-.04-.17-.02-.34-.04-.5-.06-.17-.03-.35-.04-.54-.06l.4-3.1c.11.03.23.06.37.09.14.03.28.05.41.09.04.02.09.03.15.04.06,0,.13.01.2.01h.35c.44,0,.84-.04,1.2-.11.36-.08.7-.19,1.02-.34.29-.15.56-.31.8-.49.24-.17.43-.35.56-.54.01-.02.02-.03.03-.05,0-.02.02-.03.03-.05,0-.02.02-.03.03-.05,0-.02.02-.03.03-.05,0-.02.02-.03.03-.05,0-.02.02-.03.03-.05.01-.02.02-.03.03-.05,0-.02.02-.03.03-.05.08-.18.12-.36.1-.51-.01-.16-.05-.31-.12-.46-.07-.15-.18-.26-.33-.34-.15-.07-.35-.11-.61-.11l-3.06-.03-6.99,12.16h-6.19l8.86-15.4h11.16ZM177.89,17.37c1.12.01,2.04.15,2.76.39.72.24,1.22.59,1.5,1.04.25.45.38.92.37,1.4,0,.48-.17.99-.47,1.52-.02.03-.04.07-.06.1-.02.03-.04.07-.06.1,0,.02-.02.04-.04.07-.01.02-.02.03-.03.05,0,.02-.02.03-.03.05-.3.43-.68.85-1.13,1.26-.45.41-.98.8-1.59,1.19-.63.38-1.28.7-1.94.96-.66.26-1.36.45-2.11.59l.38,6.69h-6.66l.56-8.34s.04.03.08.04c.03,0,.06.01.09.01h.31s.04.03.06.03h.19c.67,0,1.27-.04,1.82-.12.55-.08,1.04-.21,1.47-.38.46-.18.84-.37,1.14-.55.3-.18.55-.38.75-.6,0-.02.02-.03.02-.04,0,0,.01-.02.02-.04,0-.02.02-.03.03-.05,0-.02.02-.03.02-.04,0,0,0-.02.02-.04,0-.02.02-.03.03-.05.13-.23.19-.45.16-.65-.03-.2-.13-.39-.3-.57-.15-.18-.39-.32-.72-.42-.33-.1-.74-.15-1.22-.15l-2.83-.03-6.89,11.98h-5.96l8.86-15.4h11.39ZM137.44,21.14c-.24-.03-.48-.07-.72-.11-.25-.04-.53-.08-.84-.11-.15-.02-.3-.03-.45-.05-.16-.02-.31-.03-.45-.05-.14-.02-.3-.03-.46-.04-.16,0-.32-.02-.46-.04h-.17c-.06,0-.12,0-.16-.03h-.48c-.06,0-.12,0-.16-.02h-.38c-.88.02-1.76.1-2.64.25-.88.15-1.77.38-2.66.67-.89.3-1.68.73-2.36,1.3-.68.57-1.27,1.27-1.74,2.1-.49.85-.76,1.58-.81,2.18-.05.61.12,1.1.51,1.48.4.38.92.67,1.58.86.66.19,1.45.29,2.37.29.33,0,.69-.01,1.06-.04.37-.03.77-.06,1.18-.11.22-.03.44-.06.65-.09.21-.03.42-.05.64-.09.24-.05.46-.09.67-.13.21-.03.44-.07.67-.12.09-.02.17-.03.26-.05.09-.02.17-.03.26-.05.06-.02.11-.03.16-.04.04,0,.09-.02.16-.04.03,0,.07,0,.12-.01.06,0,.1-.02.14-.04l-2.78,3.57c-.56.08-1.11.15-1.63.2-.53.05-1.03.09-1.51.13-.51.03-.98.06-1.43.07-.45.02-.86.03-1.25.03-1.87,0-3.4-.15-4.59-.45-1.19-.3-2.05-.76-2.6-1.37-.51-.63-.84-1.29-1-1.97-.16-.68-.13-1.41.08-2.17.03-.15.08-.3.12-.45.05-.15.11-.3.2-.45.02-.08.05-.16.08-.24.03-.07.07-.15.12-.24.04-.07.08-.14.13-.23.05-.08.09-.16.13-.22.02-.03.03-.06.04-.08,0-.02.02-.04.04-.06.01-.03.03-.05.04-.06,0-.02.02-.03.02-.04,0,0,.02-.02.06-.04,0-.02.02-.03.03-.05.01-.02.02-.03.02-.04,0,0,.01-.02.02-.04.05-.08.09-.16.14-.24.04-.07.1-.15.16-.21.05-.08.1-.17.16-.25.06-.08.13-.17.2-.25.68-.83,1.53-1.64,2.54-2.41,1.01-.77,2.21-1.52,3.6-2.23,1.38-.7,2.88-1.23,4.51-1.58,1.63-.36,3.39-.54,5.29-.54.38,0,.78.01,1.17.04.4.02.82.05,1.26.09.41.05.82.1,1.24.15.42.05.84.11,1.27.17v-.02s-1.32,3.6-1.32,3.6Z"/>
  <path class="st2" d="M117.08,21.03c-.39-.08-.77-.15-1.12-.22-.35-.07-.68-.13-1-.17-.29-.05-.58-.08-.87-.12-.29-.03-.55-.05-.8-.05-.42,0-.8.03-1.16.08-.35.06-.68.15-.98.27-.29.11-.52.23-.7.36-.18.13-.32.28-.41.43-.06.09-.1.19-.12.29-.03.1-.03.21-.03.32.01.06.02.12.04.17.02.05.03.1.06.15.01.06.04.12.08.18.04.05.08.11.11.17.07.09.15.19.25.28.1.09.21.19.33.28.08.06.18.13.28.2.11.07.22.14.36.2.04.02.08.03.11.06.03.02.07.04.11.06.38.19.7.4.98.65.28.25.48.53.61.84.15.31.25.63.29.95.05.33.04.65-.01.98-.04.11-.08.21-.1.31-.03.1-.05.2-.09.29-.03.05-.06.09-.09.14-.03.05-.04.09-.05.14-.03.05-.06.09-.09.14-.03.05-.06.09-.08.14-.3.48-.73.93-1.29,1.35-.57.42-1.25.81-2.06,1.16-.81.36-1.76.62-2.84.79-1.09.17-2.32.25-3.69.25-.39,0-.79,0-1.2-.02-.41-.02-.82-.04-1.25-.07-.42-.03-.86-.07-1.31-.12-.45-.05-.9-.1-1.35-.16l1.5-3.56c.16.06.31.12.46.19.15.06.3.12.47.16.16.06.32.12.49.16.17.05.35.09.55.12.06.02.13.03.21.05.08.02.15.03.21.05.13.03.27.06.41.08.14.02.3.04.46.06.23.03.44.05.66.07.21.02.43.02.65.02.35,0,.69-.02,1.04-.07.35-.05.68-.12.99-.23.3-.09.57-.22.79-.38.22-.16.4-.35.54-.57.05-.08.08-.16.09-.24.02-.09.02-.16,0-.22,0-.08-.02-.16-.06-.23-.04-.08-.09-.16-.17-.24-.03-.06-.08-.12-.14-.19-.06-.06-.12-.12-.18-.18-.07-.05-.15-.1-.23-.16-.08-.06-.17-.13-.25-.19-.17-.12-.34-.25-.5-.38-.16-.13-.33-.28-.51-.43-.12-.09-.24-.18-.36-.28-.13-.09-.24-.19-.35-.3-.11-.11-.2-.22-.29-.34-.09-.12-.17-.24-.24-.36-.08-.16-.15-.32-.21-.49-.07-.17-.12-.35-.15-.54,0-.19-.01-.37,0-.56,0-.19.03-.37.07-.56.02-.08.05-.16.08-.24.03-.09.05-.17.08-.24.02-.08.06-.16.11-.23.05-.08.1-.16.14-.23.3-.48.71-.93,1.26-1.35.54-.42,1.22-.81,2.04-1.19.8-.37,1.72-.65,2.78-.84,1.06-.19,2.24-.28,3.54-.28.34,0,.69,0,1.04.01.35,0,.71.03,1.09.06.41.02.81.05,1.2.09.39.05.77.1,1.15.16l-1.35,3.33ZM99.62,17.52h5.23l-8.85,14.37h-7.03l-2.01-8.94-5.51,8.94h-5.27l8.85-14.37h7.04l1.7,9.5,5.85-9.5ZM69.8,24.78l.48-4.07-4.98,4.07h4.49ZM75.93,17.52l-.9,14.37h-6.37l.52-4.19h-7.03l-4.9,4.19h-6.34l17.73-14.37h7.29ZM52.07,17.52c1.07.02,1.95.14,2.63.36.68.23,1.15.55,1.41.97.23.42.34.85.32,1.3-.02.45-.18.92-.49,1.42-.02.03-.04.06-.06.09-.02.03-.04.06-.06.09,0,.01-.02.04-.04.07-.01.02-.02.03-.03.05-.01.02-.02.03-.03.05-.3.4-.67.79-1.11,1.18-.44.38-.96.75-1.55,1.11-.61.36-1.24.65-1.88.9-.64.24-1.32.42-2.03.55l.21,6.24h-6.37l.74-7.78s.04.03.07.04c.03,0,.06.01.08.01h.29s.03.02.06.02h.18c.64,0,1.22-.04,1.75-.12.53-.08,1-.19,1.41-.35.45-.17.82-.34,1.11-.51.29-.17.53-.36.73-.56.01-.02.02-.03.02-.03,0,0,.01-.02.02-.03,0-.02.02-.03.03-.05,0-.02.02-.03.02-.03,0,0,.01-.02.02-.03,0-.02.02-.03.03-.05.13-.22.19-.42.17-.6-.02-.18-.11-.36-.28-.54-.14-.17-.37-.3-.68-.4-.31-.09-.7-.14-1.16-.14l-2.71-.02-6.89,11.18h-5.71l8.85-14.37h10.9ZM20.01,20.71l1.97-3.19h17.97l-1.96,3.19h-5.93l-6.89,11.18h-6.15l6.89-11.18h-5.89Z"/>
  <g class="st3">
    <path class="st1" d="M129.14,22.35c1.63-1.08,9.82-1.81,17.97,1,5.49-4.62,13.2-5.46,16.47-5.03.33.04.68.1,1,.21.15.05.29.12.38.22.17.2.05.67-.28.8-1.75.71-4.21,1.16-5.64,1.69-4.54,1.71-6.71,3.86-7.93,5.5-.57.77-.83,1.28-1.54,2.37-5.15-2.9-12.07-6.25-20.03-5.84-.87.05-1-.21-.84-.45.1-.15.29-.38.44-.48"/>
  </g>
  <polygon points="19.03 37.9 21.86 37.9 21.86 38.56 19.83 38.56 19.83 39.73 21.67 39.73 21.67 40.38 19.83 40.38 19.83 42.22 19.03 42.22 19.03 37.9"/>
  <path d="M25.28,42.27c-1.16,0-2.03-.82-2.03-2.22s.87-2.21,2.03-2.21,2.03.82,2.03,2.21-.87,2.22-2.03,2.22M25.28,38.55c-.72,0-1.22.53-1.22,1.51s.51,1.51,1.22,1.51,1.22-.53,1.22-1.51-.51-1.51-1.22-1.51Z"/>
  <path d="M28.84,37.9h1.66c1.01,0,1.56.56,1.56,1.38,0,.59-.27,1.02-.79,1.22l.95,1.71h-.89l-.87-1.58h-.81v1.58h-.8v-4.31ZM30.38,39.99c.59,0,.86-.25.86-.71s-.27-.73-.86-.73h-.73v1.43h.74Z"/>
  <polygon points="33.57 37.9 36.44 37.9 36.44 38.56 34.36 38.56 34.36 39.73 36.29 39.73 36.29 40.38 34.36 40.38 34.36 41.56 36.45 41.56 36.45 42.22 33.57 42.22 33.57 37.9"/>
  <polygon points="39.67 39.48 39.7 39.48 40.68 37.9 41.59 37.9 40.23 40.06 41.61 42.22 40.69 42.22 39.7 40.65 39.67 40.65 38.68 42.22 37.76 42.22 39.16 40.06 37.78 37.9 38.7 37.9 39.67 39.48"/>
  <rect x="45.56" y="36.51" width=".72" height="7.09"/>
  <path d="M53.48,39.36c-.09-.52-.51-.81-1.05-.81-.72,0-1.23.54-1.23,1.51s.51,1.51,1.23,1.51c.53,0,.95-.28,1.05-.79h.81c-.12.83-.82,1.49-1.87,1.49-1.16,0-2.02-.82-2.02-2.22s.87-2.21,2.02-2.21c.98,0,1.73.56,1.87,1.51h-.81Z"/>
  <path d="M55.51,42.22l1.55-4.31h.99l1.56,4.31h-.85l-.37-1.06h-1.66l-.36,1.06h-.85ZM58.17,40.53l-.6-1.74h-.03l-.6,1.74h1.23Z"/>
  <path d="M60.96,37.9h1.66c1.01,0,1.56.56,1.56,1.38,0,.59-.27,1.02-.79,1.22l.95,1.71h-.89l-.87-1.58h-.82v1.58h-.8v-4.31ZM62.5,39.99c.59,0,.86-.25.86-.71s-.27-.73-.86-.73h-.73v1.43h.74Z"/>
  <path d="M65.68,42.22v-4.31h1.53c1.31,0,2.11.81,2.11,2.15s-.8,2.16-2.14,2.16h-1.5ZM67.14,41.54c.92,0,1.39-.49,1.39-1.48s-.47-1.48-1.36-1.48h-.68v2.96h.66Z"/>
  <path d="M72.42,38.51c-.5,0-.8.24-.8.56,0,.36.39.51.75.59l.41.1c.66.15,1.3.49,1.3,1.24,0,.76-.62,1.28-1.68,1.28s-1.68-.48-1.71-1.34h.79c.03.45.42.67.92.67s.88-.25.88-.62c0-.33-.32-.48-.79-.6l-.5-.13c-.73-.18-1.18-.54-1.18-1.16,0-.76.69-1.27,1.62-1.27s1.58.52,1.59,1.24h-.77c-.04-.37-.36-.58-.83-.58"/>
  <rect x="78.14" y="36.51" width=".72" height="7.09"/>
  <polygon points="84.06 37.9 85.37 41.03 85.43 41.03 86.74 37.9 87.71 37.9 87.71 42.22 86.95 42.22 86.95 39.25 86.91 39.25 85.69 42.2 85.11 42.2 83.89 39.25 83.85 39.25 83.85 42.22 83.09 42.22 83.09 37.9 84.06 37.9"/>
  <path d="M91.36,42.27c-1.16,0-2.03-.82-2.03-2.22s.87-2.21,2.03-2.21,2.03.82,2.03,2.21-.87,2.22-2.03,2.22M91.36,38.55c-.72,0-1.22.53-1.22,1.51s.51,1.51,1.22,1.51,1.22-.53,1.22-1.51-.5-1.51-1.22-1.51Z"/>
  <polygon points="98.55 42.22 97.84 42.22 95.76 39.28 95.72 39.28 95.72 42.22 94.92 42.22 94.92 37.9 95.64 37.9 97.71 40.84 97.75 40.84 97.75 37.9 98.55 37.9 98.55 42.22"/>
  <polygon points="100.19 37.9 103.06 37.9 103.06 38.56 100.99 38.56 100.99 39.73 102.91 39.73 102.91 40.38 100.99 40.38 100.99 41.56 103.08 41.56 103.08 42.22 100.19 42.22 100.19 37.9"/>
  <polygon points="105.25 37.9 106.34 39.81 106.38 39.81 107.46 37.9 108.36 37.9 106.75 40.61 106.75 42.22 105.96 42.22 105.96 40.61 104.35 37.9 105.25 37.9"/>
  <polygon points="111.79 37.9 115.32 37.9 115.32 38.56 113.95 38.56 113.95 42.22 113.16 42.22 113.16 38.56 111.79 38.56 111.79 37.9"/>
  <path d="M116.77,37.9h1.66c1.01,0,1.56.56,1.56,1.38,0,.59-.27,1.02-.79,1.22l.95,1.71h-.89l-.87-1.58h-.81v1.58h-.8v-4.31ZM118.3,39.99c.59,0,.86-.25.86-.71s-.27-.73-.86-.73h-.73v1.43h.74Z"/>
  <path d="M121.2,42.22l1.55-4.31h.99l1.56,4.31h-.85l-.37-1.06h-1.66l-.36,1.06h-.85ZM123.87,40.53l-.6-1.74h-.03l-.6,1.74h1.23Z"/>
  <polygon points="130.28 42.22 129.57 42.22 127.49 39.28 127.46 39.28 127.46 42.22 126.66 42.22 126.66 37.9 127.37 37.9 129.45 40.84 129.49 40.84 129.49 37.9 130.28 37.9 130.28 42.22"/>
  <path d="M133.49,38.51c-.5,0-.8.24-.8.56,0,.36.39.51.75.59l.41.1c.66.15,1.3.49,1.3,1.24,0,.76-.62,1.28-1.67,1.28s-1.68-.48-1.71-1.34h.79c.03.45.42.67.92.67s.88-.25.88-.62c0-.33-.32-.48-.79-.6l-.5-.13c-.73-.18-1.18-.54-1.18-1.16,0-.76.69-1.27,1.62-1.27s1.58.52,1.59,1.24h-.77c-.04-.37-.35-.58-.83-.58"/>
  <polygon points="136.64 37.9 139.47 37.9 139.47 38.56 137.44 38.56 137.44 39.73 139.28 39.73 139.28 40.38 137.44 40.38 137.44 42.22 136.64 42.22 136.64 37.9"/>
  <polygon points="140.97 37.9 143.84 37.9 143.84 38.56 141.77 38.56 141.77 39.73 143.7 39.73 143.7 40.38 141.77 40.38 141.77 41.56 143.86 41.56 143.86 42.22 140.97 42.22 140.97 37.9"/>
  <path d="M145.44,37.9h1.66c1.01,0,1.56.56,1.56,1.38,0,.59-.27,1.02-.79,1.22l.95,1.71h-.89l-.87-1.58h-.81v1.58h-.8v-4.31ZM146.97,39.99c.59,0,.86-.25.86-.71s-.27-.73-.86-.73h-.73v1.43h.74Z"/>
  <rect x="152.73" y="36.51" width=".72" height="7.09"/>
  <rect x="157.67" y="37.9" width=".8" height="4.31"/>
  <polygon points="163.74 42.22 163.03 42.22 160.95 39.28 160.92 39.28 160.92 42.22 160.12 42.22 160.12 37.9 160.83 37.9 162.91 40.84 162.95 40.84 162.95 37.9 163.74 37.9 163.74 42.22"/>
  <path d="M166.95,38.51c-.5,0-.8.24-.8.56,0,.36.39.51.75.59l.41.1c.66.15,1.29.49,1.3,1.24,0,.76-.62,1.28-1.67,1.28s-1.68-.48-1.71-1.34h.79c.03.45.42.67.92.67s.88-.25.88-.62c0-.33-.32-.48-.79-.6l-.5-.13c-.73-.18-1.18-.54-1.18-1.16,0-.76.69-1.27,1.62-1.27s1.58.52,1.59,1.24h-.77c-.04-.37-.35-.58-.83-.58"/>
  <path d="M173.69,37.9v2.85c0,.98-.77,1.53-1.79,1.53s-1.79-.55-1.79-1.53v-2.85h.8v2.83c0,.53.44.84.99.84s.99-.31.99-.84v-2.83h.8Z"/>
  <path d="M175.33,37.9h1.66c1.01,0,1.56.56,1.56,1.38,0,.59-.27,1.02-.79,1.22l.95,1.71h-.89l-.87-1.58h-.82v1.58h-.8v-4.31ZM176.87,39.99c.59,0,.86-.25.86-.71s-.27-.73-.86-.73h-.73v1.43h.74Z"/>
  <path d="M179.77,42.22l1.55-4.31h.99l1.56,4.31h-.85l-.37-1.06h-1.66l-.36,1.06h-.85ZM182.43,40.53l-.6-1.74h-.03l-.6,1.74h1.23Z"/>
  <polygon points="188.85 42.22 188.14 42.22 186.06 39.28 186.02 39.28 186.02 42.22 185.22 42.22 185.22 37.9 185.94 37.9 188.01 40.84 188.05 40.84 188.05 37.9 188.85 37.9 188.85 42.22"/>
  <path d="M193.47,39.36c-.09-.52-.51-.81-1.05-.81-.72,0-1.23.54-1.23,1.51s.51,1.51,1.23,1.51c.53,0,.95-.28,1.05-.79h.81c-.12.83-.82,1.49-1.87,1.49-1.16,0-2.02-.82-2.02-2.22s.87-2.21,2.02-2.21c.98,0,1.73.56,1.87,1.51h-.81Z"/>
  <polygon points="195.78 37.9 198.65 37.9 198.65 38.56 196.58 38.56 196.58 39.73 198.5 39.73 198.5 40.38 196.58 40.38 196.58 41.56 198.67 41.56 198.67 42.22 195.78 42.22 195.78 37.9"/>
</svg>