<?xml version="1.0" encoding="UTF-8"?>
<svg id="Layer_1" xmlns="http://www.w3.org/2000/svg" version="1.1" xmlns:xlink="http://www.w3.org/1999/xlink" viewBox="0 0 148.1 107.3">
  <!-- Generator: Adobe Illustrator 30.3.0, SVG Export Plug-In . SVG Version: 2.1.3 Build 182)  -->
  <defs>
    <style>
      .st0 {
        fill: none;
      }

      .st1 {
        fill: #ed292a;
        fill-rule: evenodd;
      }

      .st2 {
        clip-path: url(#clippath);
      }
    </style>
    <clipPath id="clippath">
      <rect class="st0" x="13.17" y="31.81" width="121.77" height="36.46"/>
    </clipPath>
  </defs>
  <path d="M65.28,84.95c-9.45,0-17.03-2.52-21.91-7.28-4.17-4.08-6-9.39-5.28-15.38,1.26-10.4,10.2-21.44,23.93-29.53,11.22-6.62,24.27-10.41,35.79-10.41,9.45,0,17.03,2.52,21.91,7.28,4.18,4.08,6,9.39,5.28,15.37-1.25,10.4-10.2,21.44-23.93,29.54-11.23,6.62-24.28,10.42-35.8,10.42M97.81,32.3c-9.8,0-21,3.29-30.75,9.04-10.75,6.33-18.24,15.02-19.1,22.15-.35,2.87.42,5.17,2.35,7.05,2.94,2.87,8.25,4.45,14.96,4.45,9.8,0,21-3.29,30.75-9.03,10.74-6.34,18.24-15.03,19.1-22.16.35-2.86-.43-5.17-2.35-7.05-2.94-2.87-8.26-4.45-14.97-4.45Z"/>
  <g class="st2">
    <path class="st1" d="M14.84,45.62c5.45-3.62,32.87-6.07,60.13,3.35,18.37-15.44,44.16-18.26,55.11-16.84,1.1.14,2.29.34,3.34.71.5.17.97.41,1.26.74.57.67.17,2.24-.93,2.68-5.86,2.38-14.1,3.86-18.86,5.66-15.18,5.71-22.44,12.91-26.55,18.42-1.91,2.56-2.78,4.27-5.15,7.93-17.22-9.7-40.39-20.91-67.01-19.53-2.91.16-3.35-.69-2.81-1.52.34-.51.96-1.26,1.47-1.6"/>
  </g>
</svg>