<?xml version="1.0" encoding="UTF-8"?>
<svg id="Layer_1" xmlns="http://www.w3.org/2000/svg" version="1.1" viewBox="0 0 841.89 595.28">
  <!-- Generator: Adobe Illustrator 30.3.0, SVG Export Plug-In . SVG Version: 2.1.3 Build 182)  -->
  <defs>
    <style>
      .st0, .st1 {
        fill: #fff;
      }

      .st1, .st2 {
        fill-rule: evenodd;
      }

      .st2 {
        fill: #ea1f27;
      }
    </style>
  </defs>
  <path class="st0" d="M548.24,267.03c-10.45,0-18.82-2.78-24.21-8.04-4.61-4.5-6.63-10.37-5.84-16.98,1.39-11.48,11.27-23.67,26.45-32.6,12.41-7.31,26.83-11.5,39.56-11.5,10.45,0,18.82,2.78,24.22,8.04,4.62,4.5,6.63,10.37,5.83,16.97-1.39,11.48-11.27,23.67-26.45,32.61-12.41,7.31-26.83,11.5-39.56,11.5ZM584.2,208.9c-10.83,0-23.21,3.64-33.98,9.98-11.88,7-20.17,16.59-21.12,24.45-.38,3.17.47,5.71,2.6,7.79,3.25,3.17,9.13,4.92,16.54,4.92,10.83,0,23.21-3.64,33.99-9.98,11.87-7,20.16-16.59,21.11-24.46.38-3.16-.47-5.71-2.6-7.79-3.25-3.17-9.13-4.92-16.55-4.92Z"/>
  <path class="st1" d="M743.39,205.22c3.66.06,6.64.54,8.92,1.43,2.29.89,3.87,2.23,4.74,4.01.9,1.72,1.28,3.55,1.11,5.48-.16,1.94-.87,3.99-2.11,6.13-.07.12-.14.25-.2.37-.07.12-.15.24-.22.37-.04.06-.07.12-.11.19-.03.06-.07.12-.11.19-.13.06-.21.12-.25.18-.03.06-.07.12-.1.19-1.39,2.09-3.27,4.13-5.64,6.09-2.37,1.96-5.16,3.84-8.36,5.63-3.08,1.72-6.44,3.03-10.08,3.92-3.64.89-7.5,1.34-11.59,1.34-.57,0-1.15-.01-1.75-.05-.6-.03-1.21-.08-1.84-.14-.63-.06-1.25-.14-1.86-.23-.61-.09-1.28-.16-2-.23l1.47-11.44c.4.12.86.23,1.38.32.52.09,1.02.2,1.52.32.16.06.35.11.57.14.22.04.47.05.76.05h.64s.65,0,.65,0c1.61,0,3.09-.14,4.44-.42,1.34-.28,2.6-.7,3.77-1.25,1.08-.55,2.06-1.15,2.96-1.8.89-.65,1.58-1.3,2.06-1.98.04-.06.07-.12.1-.18.04-.06.07-.12.11-.19.04-.06.07-.12.1-.18.04-.06.07-.13.11-.19.04-.07.07-.12.11-.19.04-.06.07-.12.1-.19.04-.06.07-.12.11-.18.03-.07.07-.13.1-.19.3-.67.42-1.31.38-1.89-.04-.58-.19-1.15-.43-1.71-.26-.55-.66-.97-1.21-1.25-.55-.27-1.3-.41-2.25-.41l-11.33-.09-25.86,44.92h-22.91s32.77-56.91,32.77-56.91h41.27ZM672.81,205.22c4.14.06,7.54.54,10.21,1.43,2.66.89,4.52,2.17,5.55,3.83.94,1.66,1.4,3.38,1.37,5.16-.03,1.79-.62,3.66-1.75,5.63-.07.12-.14.25-.21.37-.07.12-.14.25-.21.37-.04.06-.09.15-.16.27-.04.06-.07.12-.11.18-.03.07-.07.13-.1.19-1.11,1.6-2.5,3.15-4.18,4.66-1.67,1.51-3.63,2.97-5.87,4.38-2.33,1.41-4.72,2.6-7.16,3.55-2.45.96-5.05,1.68-7.79,2.17l1.42,24.72h-24.62s2.08-30.8,2.08-30.8c.06.06.15.11.28.14.13.03.23.04.33.04h.36s.35,0,.35,0h.14s.29,0,.29,0c.06.06.14.09.23.09h.29s.42,0,.42,0c2.47,0,4.72-.15,6.74-.46,2.03-.31,3.84-.77,5.42-1.39,1.72-.67,3.12-1.35,4.23-2.03,1.1-.68,2.02-1.41,2.77-2.21.03-.06.06-.11.08-.14.01-.03.04-.08.07-.13.04-.07.08-.13.11-.19.04-.06.06-.11.08-.14.01-.03.04-.08.08-.14.03-.06.07-.12.11-.19.5-.86.7-1.66.6-2.4-.1-.74-.48-1.45-1.13-2.12-.56-.67-1.44-1.2-2.65-1.56-1.21-.37-2.72-.55-4.52-.55l-10.47-.09-25.49,44.27h-22.06s32.76-56.91,32.76-56.91h42.12ZM523.19,219.15c-.88-.12-1.77-.26-2.67-.42-.91-.16-1.94-.3-3.11-.42-.54-.06-1.09-.12-1.67-.18-.58-.06-1.14-.12-1.67-.18-.54-.06-1.1-.11-1.7-.14-.6-.03-1.16-.07-1.7-.14h-.64c-.23,0-.44-.03-.59-.09h-.57s-.57,0-.57,0h-.64c-.23,0-.43-.03-.59-.09h-.57s-.57,0-.57,0h-.14s-.14,0-.14,0c-3.26.06-6.52.37-9.78.92-3.26.55-6.54,1.39-9.83,2.49-3.29,1.11-6.21,2.71-8.74,4.8-2.53,2.09-4.68,4.67-6.45,7.75-1.8,3.14-2.81,5.83-3.01,8.07-.2,2.25.43,4.08,1.89,5.49,1.47,1.41,3.41,2.47,5.85,3.19,2.44.7,5.37,1.06,8.78,1.06,1.23,0,2.54-.05,3.92-.14,1.38-.09,2.84-.23,4.37-.41.83-.12,1.63-.23,2.39-.32.77-.09,1.57-.2,2.39-.32.87-.19,1.69-.34,2.47-.47.78-.12,1.61-.28,2.47-.46.32-.06.64-.12.96-.19.32-.06.64-.12.96-.18.23-.06.42-.11.58-.14.16-.03.35-.08.58-.14.1,0,.25-.01.45-.04.21-.03.38-.08.51-.14l-10.3,13.19c-2.08.3-4.09.55-6.05.74-1.96.18-3.82.34-5.6.47-1.87.12-3.63.21-5.28.27-1.65.06-3.18.09-4.61.09-6.92,0-12.58-.55-16.97-1.66-4.39-1.11-7.59-2.8-9.6-5.08-1.88-2.33-3.11-4.77-3.7-7.29-.59-2.52-.5-5.2.28-8.03.13-.55.28-1.11.46-1.66.17-.55.42-1.11.74-1.66.08-.31.17-.6.29-.88.11-.28.26-.57.43-.87.15-.25.31-.53.48-.84.18-.3.34-.58.48-.82.07-.12.12-.22.16-.28.04-.06.08-.14.13-.23.05-.09.1-.17.13-.23.03-.06.06-.1.08-.13.02-.03.09-.08.22-.14.03-.06.07-.12.1-.18.04-.07.06-.11.08-.14.02-.03.04-.08.08-.14.17-.31.34-.6.51-.87.16-.28.36-.54.59-.78.18-.31.38-.62.6-.93.23-.3.47-.61.75-.92,2.53-3.07,5.66-6.04,9.39-8.9,3.74-2.85,8.17-5.61,13.29-8.25,5.09-2.58,10.65-4.53,16.68-5.85,6.03-1.32,12.55-1.99,19.57-1.99,1.42,0,2.87.05,4.33.14,1.46.09,3.01.2,4.65.32,1.51.19,3.04.38,4.59.55,1.55.19,3.11.4,4.68.65l.05-.09-4.94,13.28Z"/>
  <path class="st1" d="M447.9,218.75c-1.45-.29-2.83-.57-4.12-.82-1.29-.26-2.52-.47-3.69-.65-1.07-.17-2.14-.31-3.21-.43-1.06-.11-2.05-.17-2.96-.17-1.55,0-2.97.1-4.27.3-1.31.2-2.51.53-3.61.99-1.07.4-1.93.85-2.59,1.34-.67.49-1.18,1.02-1.53,1.6-.21.33-.37.7-.46,1.07-.1.37-.13.76-.1,1.16.04.23.09.44.15.64.06.2.13.39.2.56.04.23.14.45.29.65.15.2.29.41.42.65.24.34.55.69.93,1.03.38.34.78.69,1.2,1.03.31.23.67.47,1.05.73.39.26.83.5,1.32.73.15.06.29.13.41.22.13.08.27.15.41.22,1.4.68,2.6,1.48,3.62,2.41,1.03.92,1.77,1.95,2.25,3.1.56,1.15.93,2.32,1.09,3.53.17,1.2.15,2.41-.04,3.61-.16.4-.29.79-.38,1.16-.09.37-.2.73-.32,1.07-.11.17-.21.35-.32.52-.11.17-.16.34-.18.51-.11.17-.21.34-.32.51-.11.17-.22.34-.32.52-1.1,1.78-2.69,3.44-4.78,4.99-2.09,1.54-4.63,2.98-7.63,4.3-2.99,1.32-6.5,2.3-10.52,2.93-4.02.63-8.57.94-13.66.94-1.45,0-2.93-.03-4.44-.09-1.51-.06-3.05-.14-4.61-.26-1.56-.11-3.18-.26-4.84-.43-1.66-.17-3.33-.37-5.01-.6l5.53-13.16c.58.23,1.15.46,1.69.69.54.23,1.12.43,1.74.6.59.23,1.19.43,1.81.6.62.17,1.3.32,2.05.43.24.06.5.12.78.18.28.06.54.11.78.17.48.11.98.22,1.52.3.53.09,1.1.16,1.7.22.84.11,1.64.2,2.43.26.79.06,1.58.09,2.4.09,1.28,0,2.55-.09,3.84-.26,1.29-.17,2.51-.46,3.66-.86,1.12-.34,2.1-.82,2.92-1.42.83-.6,1.49-1.31,1.98-2.11.17-.29.29-.59.35-.9.06-.32.07-.58.02-.81,0-.29-.08-.58-.22-.86-.14-.29-.35-.58-.63-.87-.13-.23-.31-.46-.53-.69-.22-.22-.45-.46-.66-.68-.26-.17-.55-.38-.86-.6-.31-.23-.62-.46-.94-.69-.63-.46-1.24-.93-1.85-1.42-.61-.49-1.23-1.02-1.88-1.59-.42-.34-.87-.69-1.34-1.03-.47-.34-.9-.72-1.29-1.12-.39-.4-.74-.82-1.07-1.25-.32-.43-.62-.88-.88-1.33-.28-.58-.55-1.18-.8-1.81-.25-.63-.43-1.29-.55-1.98-.03-.69-.04-1.38-.02-2.06.01-.69.1-1.37.25-2.06.09-.29.18-.59.29-.9.1-.32.2-.62.28-.9.09-.29.22-.58.39-.86.18-.29.36-.57.53-.86,1.09-1.78,2.64-3.44,4.64-4.99,2-1.55,4.51-3.01,7.54-4.39,2.94-1.38,6.37-2.4,10.29-3.09,3.92-.69,8.29-1.03,13.1-1.03,1.27,0,2.56.01,3.86.04,1.3.03,2.64.11,4.02.22,1.51.06,2.98.17,4.42.34,1.44.17,2.86.37,4.26.61l-5,12.3ZM383.31,205.75h19.35s-32.74,53.08-32.74,53.08h-26.01s-7.42-33.03-7.42-33.03l-20.37,33.03h-19.48s32.73-53.08,32.73-53.08h26.02s6.28,35.1,6.28,35.1l21.65-35.1ZM273.05,232.59l1.79-15.05-18.41,15.05h16.61ZM295.73,205.76l-3.32,53.08h-23.56s1.92-15.49,1.92-15.49h-26.02s-18.13,15.49-18.13,15.49h-23.43s65.56-53.08,65.56-53.08h26.97ZM207.47,205.76c3.96.06,7.2.51,9.73,1.34,2.53.83,4.27,2.02,5.22,3.57.86,1.55,1.25,3.16,1.18,4.82-.07,1.67-.67,3.42-1.81,5.25-.07.11-.14.23-.21.34-.07.12-.14.23-.22.35-.03.05-.09.14-.16.25-.04.06-.07.12-.11.17-.04.06-.07.11-.1.17-1.1,1.49-2.47,2.94-4.11,4.34-1.64,1.41-3.55,2.77-5.72,4.09-2.27,1.31-4.58,2.42-6.95,3.31-2.36.89-4.87,1.56-7.51,2.02l.76,23.06h-23.57s2.74-28.73,2.74-28.73c.06.05.14.1.26.13.12.03.22.04.32.04h.34s.34,0,.34,0h.13s.28,0,.28,0c.06.06.13.09.22.09h.27s.41,0,.41,0c2.36,0,4.52-.15,6.47-.43,1.95-.29,3.69-.71,5.22-1.29,1.66-.63,3.03-1.26,4.09-1.89,1.07-.63,1.97-1.32,2.7-2.06.04-.06.06-.1.08-.13.02-.03.04-.07.07-.13.04-.06.07-.11.11-.17.03-.06.06-.1.08-.13.02-.03.04-.07.08-.13.03-.06.07-.12.11-.18.5-.8.71-1.55.63-2.23-.07-.68-.42-1.35-1.02-1.98-.52-.63-1.36-1.12-2.51-1.47-1.15-.34-2.59-.51-4.31-.51l-10.03-.08-25.47,41.29h-21.11s32.73-53.08,32.73-53.08h40.32ZM88.91,217.55l7.27-11.79h66.47s-7.27,11.79-7.27,11.79h-21.93s-25.47,41.29-25.47,41.29h-22.75s25.47-41.29,25.47-41.29h-21.79Z"/>
  <path class="st2" d="M492.49,223.61c6.03-3.99,36.32-6.7,66.46,3.7,20.3-17.04,48.81-20.16,60.9-18.59,1.22.16,2.53.37,3.69.78.55.19,1.08.45,1.39.82.63.74.19,2.47-1.03,2.96-6.47,2.63-15.58,4.27-20.84,6.25-16.78,6.3-24.81,14.26-29.34,20.33-2.11,2.83-3.07,4.71-5.7,8.75-19.03-10.71-44.64-23.08-74.06-21.56-3.21.17-3.71-.76-3.1-1.67.38-.56,1.07-1.4,1.62-1.76"/>
</svg>